<?xml version="1.0" encoding="UTF-8"?>
<svg width="200px" height="200px" viewBox="0 0 200 200" version="1.1" xmlns="http://www.w3.org/2000/svg" xmlns:xlink="http://www.w3.org/1999/xlink">
    <!-- Generator: Sketch 54.1 (76490) - https://sketchapp.com -->
    <title>minn-duluth</title>
    <desc>Created with Sketch.</desc>
    <g id="minn-duluth" stroke="none" stroke-width="1" fill="none" fill-rule="evenodd">
        <g id="minn-duluth_BGD" transform="translate(0.000000, 0.000000)">
            <g id="minn-duluth" transform="translate(6.000000, 0.000000)">
                <g id="g10" transform="translate(94.393937, 99.536244) scale(-1, 1) rotate(-180.000000) translate(-94.393937, -99.536244) translate(0.000000, 0.008474)">
                    <g id="g12">
                        <path d="M155.412723,67.0554586 C155.412723,67.0554586 170.285814,71.1115329 174.884177,73.8059825 C177.20648,75.174807 180.82442,80.2820639 180.287753,82.4416048 C179.748541,84.5939457 177.582359,88.1062172 173.524481,89.7244964 C173.524481,89.7244964 172.991208,105.109372 172.451571,107.0004 C171.368905,110.779067 169.739814,113.474787 168.12345,109.421254 C166.493935,105.377038 164.06939,98.9013803 164.06939,98.9013803 C164.06939,98.9013803 163.259087,100.515848 161.906602,101.602183 C160.550723,102.676236 159.744238,103.764265 159.744238,103.764265 C159.744238,103.764265 160.290663,110.506318 160.014057,112.933949 C159.744238,115.362003 157.889451,116.44622 153.523572,116.44622 C153.257148,116.44622 155.68636,125.077607 156.232784,128.586491 C156.771996,132.097492 155.68636,134.522157 153.523572,135.599598 C151.358239,136.679157 145.954239,139.381654 144.604724,139.64932 C143.248421,139.920374 142.172542,140.460789 141.359693,142.355205 C140.553633,144.235644 139.200724,147.746645 137.035391,150.174699 C134.876421,152.602753 131.353936,155.57461 131.353936,155.57461 C131.353936,155.57461 130.274663,156.923106 132.170603,157.465638 C134.063148,158.002664 144.314542,160.155852 145.954239,160.693302 C148.379208,161.508159 150.500845,164.006518 146.230845,165.286826 C143.518663,166.100413 141.359693,166.639134 139.46036,167.714881 C137.577997,168.794016 135.142421,169.609296 133.516724,170.415683 C131.897815,171.225458 130.821088,173.113097 128.659148,174.993537 C126.486603,176.889647 123.244967,181.210423 119.729694,181.210423 C116.225027,181.210423 112.433149,180.130864 109.461331,178.511314 C106.489512,176.889647 99.999452,173.384152 95.6747249,170.679961 C92.4123007,168.649171 90.0043008,167.182513 88.3781796,165.832323 C86.7507857,164.468581 85.4097554,162.860466 85.4097554,162.860466 L77.8399981,162.860466 C74.864786,162.860466 70.2651498,163.666853 70.2651498,163.666853 C70.2651498,163.666853 68.9139377,165.286826 71.6159376,166.372738 C74.3200587,167.445097 79.7287253,169.873151 84.0538767,174.738153 C88.3781796,179.589179 92.9744219,184.178891 93.7821795,186.063143 C94.5903613,187.955864 95.9445431,189.577108 96.4909673,191.457971 C97.0344218,193.350693 95.4083006,194.162162 91.8951492,193.084721 C88.3781796,191.998809 69.7272104,189.840116 63.7746651,189.840116 C57.8310289,189.840116 46.2050898,186.878423 41.8818474,182.828702 C37.5553809,178.775592 34.5767325,172.843314 35.1199749,167.445097 C35.6666961,162.041798 36.4795445,159.078411 36.4795445,159.078411 C36.4795445,159.078411 32.6843992,153.414646 31.066975,150.710032 C29.4530296,148.0177 28.6383569,146.672592 29.4530296,145.318591 C30.2592598,143.970096 31.3367507,140.18804 31.3367507,140.18804 C31.3367507,140.18804 23.2309206,125.885688 21.0666055,115.904535 C18.8993207,105.914065 18.6379874,97.2763248 18.8993207,95.1248309 C19.1742722,92.9712193 19.1742722,91.61383 19.1742722,91.61383 C19.1742722,91.61383 9.16910886,85.9475234 6.73701195,84.3262796 C4.31318777,82.7130827 4.84781806,80.2820639 7.55168466,79.7391082 C10.2552119,79.2058935 18.3649026,77.3097836 18.3649026,77.3097836 L19.4475268,72.9979017 C19.4475268,72.9979017 8.91108463,61.3929638 7.27490891,59.5053243 C5.66414531,57.6193789 5.93557561,56.2624131 10.7982846,55.4589911 C15.6626481,54.645828 21.0666055,54.1016017 21.0666055,54.1016017 C21.0666055,54.1016017 25.1267327,49.791414 27.2804417,48.168476 C29.4530296,46.5455381 34.0439688,42.7698357 34.0439688,42.7698357 C34.0439688,42.7698357 31.8441871,33.5625005 38.3665748,26.5768792 C45.9365443,18.4812904 56.7496349,13.6341186 62.9669075,13.6341186 C71.3478164,13.6341186 84.3198767,14.9769812 84.3198767,14.9769812 C84.3198767,14.9769812 92.1581795,7.42519516 93.5174522,6.07157514 C94.8652704,4.72443501 96.4909673,4.72443501 97.2936339,7.42519516 C98.1052097,10.1140967 101.083816,16.8664418 101.083816,16.8664418 L106.2163,17.6731249 C106.2163,17.6731249 114.332482,12.5473601 116.757876,11.2005164 C119.193452,9.84854813 120.819573,9.57707026 121.355815,13.8978037 C121.902239,18.215276 122.435088,21.1820929 122.435088,21.1820929 C122.435088,21.1820929 126.763209,25.2330002 128.925573,28.7373095 C131.087936,32.2517409 134.063148,34.1287923 134.063148,34.1287923 C134.063148,34.1287923 140.277027,31.7069217 144.874542,31.7069217 C149.469087,31.7069217 156.771996,33.0526218 157.851693,37.9171581 C158.934784,42.7698357 160.014057,51.4079991 158.658178,55.7266572 C157.312057,60.0427743 155.412723,67.0554586 155.412723,67.0554586" id="path14" fill="#FFFFFF"></path>
                        <path d="M86.1865433,20.3752404 L87.9289069,18.6990233 C88.1287251,18.5117417 91.2239977,15.5212499 93.8229067,13.0026467 C94.9132097,15.7139949 96.1324824,18.4931914 96.3390885,18.9569485 L97.4815733,21.5433999 L107.336725,23.0930685 L108.996785,22.0532786 C110.530421,21.0829887 113.984179,18.914088 116.583936,17.3318082 C116.983149,20.1897799 117.317876,22.0054629 117.331876,22.1095223 L117.639027,23.7922193 L118.88927,24.9585577 C119.954967,25.9632376 123.040058,29.0832426 124.505391,31.4571282 C127.217573,35.8557897 130.875815,38.2513596 131.282239,38.5054731 L133.509512,39.9156757 L135.9523,38.9607597 C137.431209,38.3830327 141.926481,36.8841869 144.874542,36.8841869 C149.496663,36.8841869 152.642845,38.3898091 152.78242,39.045803 C154.08739,44.8755892 154.49042,51.6701594 153.708542,54.173177 C152.338663,58.5502812 150.480057,65.4219326 150.40836,65.7116219 L149.059693,70.6977514 L154.053451,72.0581055 C159.546117,73.550175 169.343147,76.5660782 172.243268,78.2699089 C173.01539,78.77263 174.449753,80.6670458 174.993208,81.8211444 C174.53842,82.7130827 173.496905,84.1539059 171.597571,84.9213286 L168.454784,86.1711433 L168.335572,89.5436523 C168.280844,91.2966117 168.202359,93.1431694 168.126844,94.9401751 L164.759208,85.9716642 L159.429875,96.5804774 C159.306845,96.8142618 158.938178,97.3360414 158.664541,97.5524614 C156.888663,98.9729556 155.788602,100.391756 155.583693,100.666198 L154.411936,102.226031 L154.568905,104.171693 C154.756845,106.518008 154.907451,109.460641 154.896845,111.20513 C154.555329,111.239012 154.111572,111.263153 153.523572,111.263153 L150.99636,111.263153 L149.427936,113.251167 C147.781451,115.358615 148.12636,116.774027 149.434724,122.047304 C150.029511,124.458841 150.849148,127.759775 151.101572,129.370854 C151.24539,130.341144 151.143148,130.838783 151.091814,131.018356 C145.704784,133.708571 143.996784,134.425171 143.449936,134.600509 C140.184542,135.292545 137.943694,137.166631 136.590784,140.312556 L136.303997,140.984263 C135.596784,142.662258 134.520906,145.194076 133.157815,146.728497 C131.583027,148.497127 128.904785,150.858264 128.006663,151.613828 L127.617633,151.939517 L127.299451,152.336781 C126.24733,153.648007 125.396724,155.886746 126.145088,158.232637 C126.797573,160.258345 128.467815,161.797849 130.746421,162.442873 C131.583027,162.684705 133.311815,163.073922 135.996845,163.675324 C135.313391,164.006518 134.555269,164.327125 133.796724,164.632061 C132.881633,165.015772 132.013633,165.377037 131.207572,165.783195 C129.383754,166.69165 128.156845,168.042263 127.056785,169.249302 C126.469633,169.897715 125.919391,170.51267 125.243148,171.094166 C124.614845,171.645169 123.9963,172.272405 123.343815,172.928865 C122.4283,173.856803 120.536179,175.774512 119.647815,176.026932 C117.168118,176.010414 114.291755,175.237909 111.941452,173.958872 L111.374664,173.6569 C108.231452,171.936552 102.370119,168.747852 98.4263612,166.290998 L97.6767248,165.825547 C95.0120582,164.171692 92.9179977,162.867243 91.7072098,161.849095 C90.4858159,160.833065 89.4048462,159.556144 89.3959372,159.549368 L87.8402402,157.680364 L77.8399981,157.677399 C74.5079981,157.677399 69.885877,158.468115 69.3649074,158.572302 L67.4931498,158.887403 L66.2785438,160.352367 C65.2298166,161.600487 64.3261802,163.796451 64.9362408,166.188929 C65.258665,167.47432 66.3039983,169.824022 69.6826649,171.176329 C74.0756951,172.928865 77.6024223,175.29212 80.1767253,178.175461 C81.4265434,179.585791 82.7005434,180.968591 83.9066646,182.278123 C85.3346645,183.822709 87.138119,185.781924 88.2279978,187.093149 C80.7193313,185.913216 68.3641195,184.659589 63.7746651,184.659589 C58.6112107,184.659589 48.4060594,181.834695 45.4342413,179.050458 C42.0097565,175.846511 39.9449263,171.387243 40.2814778,167.963912 C40.7698656,163.150156 41.4789868,160.454859 41.4854353,160.428601 L42.0884959,158.17165 L40.7988838,156.210741 C40.7544656,156.154412 37.0567263,150.609233 35.5215203,148.048193 C35.2242112,147.54886 34.8843082,146.994893 34.631587,146.535795 C35.3882658,144.791729 36.042193,142.626259 36.3310597,141.606841 L36.9235142,139.520993 L35.8546355,137.638859 C35.7793749,137.498673 28.1156902,123.89598 26.1411387,114.80973 C24.0147933,104.996715 23.8949449,97.0272936 24.0573449,95.7723966 C24.3546539,93.3629776 24.3665751,91.7857801 24.3665751,91.61383 L24.3665751,88.5958091 L21.7379692,87.1109395 C20.3425934,86.3142938 17.6952359,84.8103657 15.1997996,83.3572603 C17.4595693,82.843104 19.382745,82.3907821 19.543151,82.3564768 L22.6243813,81.6339475 L25.1557509,71.5685136 L23.2971873,69.5161239 C21.0618116,67.0554586 17.4749693,63.1065355 14.7591814,60.0919029 C18.3529389,59.583676 21.5434116,59.2617989 21.5790055,59.2617989 L23.5229267,59.0707903 L24.8566176,57.6498726 C26.3051933,56.109098 29.0944175,53.2918268 30.4026114,52.3151841 C32.6297143,50.6388823 37.147387,46.9322141 37.3404597,46.7767813 L39.8408172,44.7121095 L39.0894839,41.5780012 C39.0381081,41.3442168 37.6906294,34.897909 42.1637141,30.1031693 C49.0589685,22.7371826 58.6799379,18.8087156 62.9669075,18.8087156 C70.9808467,18.8087156 83.6555131,20.1160023 83.7802403,20.1249386 L86.1865433,20.3752404 Z M95.2576946,0 C93.881028,0 91.8264219,0.419221132 89.8435129,2.40944449 C88.9233311,3.32845427 84.8238767,7.29055739 82.440907,9.59574759 C78.2171496,9.19670477 69.3954528,8.45177117 62.9669075,8.45177117 C54.4286047,8.45177117 42.4810898,14.5852229 34.5767325,23.0387729 C28.9130962,29.103614 28.3172054,36.3724871 28.5510053,40.5637073 C27.099163,41.7313587 25.2785691,43.1895464 24.1733752,44.0268502 C22.5016055,45.2762414 20.1187207,47.6365319 18.6308601,49.1586715 C16.5678117,49.3924558 13.1670845,49.8049667 9.93770884,50.349193 C7.88810889,50.6833522 3.07310598,51.4846566 1.57715511,55.581389 C0.967141188,57.253032 0.777555738,59.8822593 3.3362678,62.8727511 C4.45836352,64.1755061 9.45067855,69.697815 12.716327,73.2960615 C10.4123513,73.8267351 7.81284829,74.4061138 6.53532711,74.6653095 C3.18065992,75.3281221 0.731818164,77.6151432 0.135393148,80.6141055 C-0.465508473,83.6287381 0.963993309,86.7013933 3.85033081,88.6364673 C5.59601198,89.7943776 10.5336422,92.6451071 13.7512663,94.4903943 C13.3672845,97.6155662 13.8095997,106.906378 15.9907996,117.005693 C17.8281086,125.437178 23.3522115,136.317469 25.7261448,140.74709 C25.4290054,141.633946 25.1385266,142.394169 24.9845691,142.685976 C22.5884055,146.660734 24.72506,150.225945 26.6109448,153.366788 C27.6970478,155.180734 29.6613326,158.174614 30.9335507,160.110112 C30.6279689,161.670368 30.2592598,163.963742 29.9617811,166.932211 C29.2924538,173.607772 32.4964598,181.14393 38.3311506,186.608639 C43.9090898,191.817542 56.9104228,195.025301 63.7746651,195.025301 C69.5541195,195.025301 87.5207857,197.156465 90.3593917,198.032733 C91.9239977,198.517243 93.3040583,198.745522 94.5746643,198.745522 C97.9461188,198.745522 99.7190278,197.059055 100.480967,196.047684 C101.754967,194.368841 102.10327,192.236829 101.474967,190.037901 C100.982846,188.315435 100.181876,186.948304 99.4763611,185.734066 C99.1093915,185.115299 98.7729672,184.524909 98.5578763,184.023882 C97.6661188,181.95921 95.5398158,179.599343 91.544725,175.266709 C90.8175735,174.470063 90.0573311,173.641653 89.2970887,172.799267 C90.1663614,173.35874 91.123028,173.958872 92.1819371,174.616602 L92.9213916,175.077394 C97.1264824,177.699422 103.172785,180.985532 106.417816,182.755432 L106.974422,183.058674 C110.865149,185.175016 115.517815,186.390525 119.729694,186.390525 C124.621209,186.390525 128.300663,182.671998 130.732421,180.204133 C131.2483,179.686165 131.729815,179.196997 132.071754,178.900108 C133.198966,177.917959 134.063148,176.96334 134.756785,176.199305 C135.142421,175.774512 135.662118,175.196828 135.890784,175.024454 C136.392663,174.780505 137.072724,174.495898 137.790118,174.199009 C139.129027,173.641653 140.635087,173.017381 142.03933,172.214383 C143.119027,171.602393 144.604724,171.167435 146.487087,170.613892 C146.887148,170.497423 147.296118,170.376295 147.713572,170.245003 C153.199451,168.608089 153.848542,164.887868 153.865511,163.361917 C153.920239,160.052089 151.460905,157.073456 147.603693,155.780866 C146.637693,155.461953 144.556784,154.982949 140.498906,154.072376 C140.6423,153.913979 140.778906,153.762358 140.915087,153.615819 C143.41939,150.805324 144.946239,147.177008 145.871936,145.009843 L146.028905,144.63672 C147.371633,144.290702 149.619269,143.345824 155.846723,140.239287 C160.161269,138.080169 162.227754,133.432434 161.349572,127.798739 C161.069572,125.972934 160.420481,123.217497 159.778178,120.617493 C163.208178,119.256292 164.587814,116.735063 165.045996,114.347667 C166.593208,116.162037 168.383511,116.62537 169.807693,116.62537 C175.088662,116.62537 176.800056,110.669374 177.432177,108.428941 C177.869571,106.922048 178.259026,101.699169 178.600541,92.8771973 C182.456905,90.2958282 184.609086,86.5374902 185.322662,83.7020075 C185.944601,81.2074604 185.165692,78.2745676 183.000359,74.9893042 C182.214662,73.7975121 180.130783,70.8802896 177.514056,69.3403621 C174.156602,67.3688652 166.808723,64.9971396 161.780178,63.4987173 C162.367754,61.4319278 163.04442,59.0860371 163.611208,57.2682789 C165.807511,50.2810059 163.225147,38.1560671 162.914602,36.7986353 C161.233754,29.2230474 152.488845,26.5205931 144.874542,26.5205931 C141.503087,26.5205931 137.704845,27.4871136 135.128845,28.2866816 C134.555269,27.6970537 133.90236,26.9347133 133.34236,26.0211331 C131.610603,23.2022526 128.891633,20.2834207 127.275694,18.6604828 C127.077573,17.4224844 126.797573,15.5245957 126.513754,13.2567601 C125.591451,5.93528562 121.089391,5.13868229 119.193452,5.13868229 C117.263149,5.13868229 115.603088,5.90945076 114.239997,6.67179112 C112.385209,7.70184001 107.6443,10.6562054 105.092482,12.2508944 L104.719997,12.1944812 C103.729391,9.84854813 102.639937,7.16430535 102.27127,5.93528562 C100.620967,0.427825413 96.4879976,0 95.2576946,0 L95.2576946,0 Z" id="path16" fill="#FFFFFF" fill-rule="nonzero"></path>
                        <path d="M156.301087,67.3231248 C156.301087,67.3231248 171.16739,71.3690345 175.758117,74.0685664 C178.08848,75.4395085 181.702177,80.5493066 181.168905,82.7016476 C180.62248,84.8616119 178.456723,88.3721893 174.405632,89.990892 C174.405632,89.990892 173.872784,105.370685 173.326359,107.262984 C172.243268,111.041651 170.620541,113.737371 169.001632,109.691038 C167.375935,105.639622 164.946723,99.1635407 164.946723,99.1635407 C164.946723,99.1635407 164.137269,100.787326 162.780966,101.861379 C161.431875,102.943902 160.618602,104.023037 160.618602,104.023037 C160.618602,104.023037 161.158238,110.770173 160.895208,113.193145 C160.618602,115.624587 158.764238,116.702451 154.408542,116.702451 C154.135329,116.702451 156.564117,125.341885 157.106723,128.852886 C157.650602,132.349487 156.564117,134.789824 154.408542,135.862182 C152.243208,136.945129 146.831996,139.638732 145.486299,139.914868 C144.126602,140.18804 143.04733,140.723373 142.234057,142.612706 C141.424603,144.50204 140.071693,148.016005 137.916118,150.432201 C135.753754,152.868725 132.235512,155.830418 132.235512,155.830418 C132.235512,155.830418 131.156239,157.183995 133.052178,157.722716 C134.937512,158.268636 145.192299,160.417166 146.831996,160.959274 C149.267572,161.774131 151.378602,164.269102 147.105208,165.552799 C144.406602,166.361303 142.234057,166.904682 140.348724,167.977464 C138.456178,169.053211 136.023997,169.868492 134.397875,170.676573 C132.775572,171.486348 131.699694,173.377375 129.533512,175.266709 C127.368179,177.152231 124.1223,181.46496 120.618058,181.46496 C117.096421,181.46496 113.314724,180.395565 110.342906,178.774322 C107.363876,177.152231 100.876785,173.641653 96.5524824,170.942545 C93.2989674,168.915143 90.8854523,167.440438 89.2593311,166.091519 C87.628119,164.746412 86.287513,163.124744 86.287513,163.124744 L78.7143617,163.124744 C75.7425436,163.124744 71.1429073,163.929437 71.1429073,163.929437 C71.1429073,163.929437 69.7972104,165.552799 72.4903012,166.627275 C75.2029072,167.708104 80.608604,170.139546 84.9299373,174.993537 C89.2593311,179.854727 93.8521795,184.440205 94.659937,186.334197 C95.4749067,188.22353 96.8189067,189.836304 97.3691491,191.720555 C97.9104824,193.614971 96.2826643,194.419664 92.7712098,193.350693 C89.2593311,192.264358 70.603271,190.107782 64.6545438,190.107782 C58.7138773,190.107782 47.0930291,187.143972 42.7632111,183.09298 C38.4418354,179.043258 35.4547446,173.104627 36.0046052,167.708104 C36.5425021,162.316664 37.3625203,159.346501 37.3625203,159.346501 C37.3625203,159.346501 33.5708537,153.668336 31.9499083,150.976004 C30.3324841,148.275201 29.5211205,146.92967 30.3324841,145.582869 C31.1402416,144.23268 32.2145931,140.453589 32.2145931,140.453589 C32.2145931,140.453589 24.1137267,126.148696 21.9411388,116.16839 C19.7909086,106.18046 19.5141753,97.5406028 19.7909086,95.3920735 C20.0540662,93.2249093 20.0540662,91.8814961 20.0540662,91.8814961 C20.0540662,91.8814961 10.0502179,86.2206954 7.6250786,84.5905576 C5.19115745,82.9739725 5.72578774,80.5493066 8.43627252,80.0055038 C11.1295755,79.4684774 19.2546238,77.5723675 19.2546238,77.5723675 L20.3253692,73.2621797 C20.3253692,73.2621797 9.78375127,61.65343 8.16136343,59.76452 C6.54211499,57.8802688 6.81536953,56.5266911 11.6729452,55.7164927 C16.5424844,54.910106 21.9411388,54.3696914 21.9411388,54.3696914 C21.9411388,54.3696914 26.0045751,50.0556919 28.1582417,48.4391069 C30.3324841,46.8144748 34.9302112,43.04089 34.9302112,43.04089 C34.9302112,43.04089 32.7220295,33.8199174 39.2429324,26.8461972 C46.8176958,18.7405285 57.6312107,13.8978037 63.8412711,13.8978037 C72.2327861,13.8978037 85.1997554,15.2383792 85.1997554,15.2383792 C85.1997554,15.2383792 93.0325431,7.68777907 94.3952098,6.33598019 C95.7566037,4.9840119 97.3691491,4.9840119 98.1752097,7.68777907 C98.9880581,10.3801111 101.965391,17.1285175 101.965391,17.1285175 L107.097876,17.9340148 C107.097876,17.9340148 115.203452,12.818838 117.639027,11.4614062 C120.071209,10.1140967 121.697755,9.83796007 122.233573,14.1622087 C122.773633,18.4778176 123.312845,21.4497591 123.312845,21.4497591 C123.312845,21.4497591 127.640967,25.4909254 129.799936,28.9981993 C131.965694,32.5053462 134.937512,34.399762 134.937512,34.399762 C134.937512,34.399762 141.154784,31.9670068 145.756118,31.9670068 C150.353633,31.9670068 157.650602,33.3135117 158.726481,38.1802078 C159.805754,43.04089 160.895208,51.6701594 159.539329,55.9981351 C158.18642,60.3032406 156.301087,67.3231248 156.301087,67.3231248" id="path18" fill="#FAB937"></path>
                        <path d="M156.301087,67.3231248 C156.301087,67.3231248 171.16739,71.3690345 175.758117,74.0685664 C178.08848,75.4395085 181.702177,80.5493066 181.168905,82.7016476 C180.62248,84.8616119 178.456723,88.3721893 174.405632,89.990892 C174.405632,89.990892 173.872784,105.370685 173.326359,107.262984 C172.243268,111.041651 170.620541,113.737371 169.001632,109.691038 C167.375935,105.639622 164.946723,99.1635407 164.946723,99.1635407 C164.946723,99.1635407 164.137269,100.787326 162.780966,101.861379 C161.431875,102.943902 160.618602,104.023037 160.618602,104.023037 C160.618602,104.023037 161.158238,110.770173 160.895208,113.193145 C160.618602,115.624587 158.764238,116.702451 154.408542,116.702451 C154.135329,116.702451 156.564117,125.341885 157.106723,128.852886 C157.650602,132.349487 156.564117,134.789824 154.408542,135.862182 C152.243208,136.945129 146.831996,139.638732 145.486299,139.914868 C144.126602,140.18804 143.04733,140.723373 142.234057,142.612706 C141.424603,144.50204 140.071693,148.016005 137.916118,150.432201 C135.753754,152.868725 132.235512,155.830418 132.235512,155.830418 C132.235512,155.830418 131.156239,157.183995 133.052178,157.722716 C134.937512,158.268636 145.192299,160.417166 146.831996,160.959274 C149.267572,161.774131 151.378602,164.269102 147.105208,165.552799 C144.406602,166.361303 142.234057,166.904682 140.348724,167.977464 C138.456178,169.053211 136.023997,169.868492 134.397875,170.676573 C132.775572,171.486348 131.699694,173.377375 129.533512,175.266709 C127.368179,177.152231 124.1223,181.46496 120.618058,181.46496 C117.096421,181.46496 113.314724,180.395565 110.342906,178.774322 C107.363876,177.152231 100.876785,173.641653 96.5524824,170.942545 C93.2989674,168.915143 90.8854523,167.440438 89.2593311,166.091519 C87.628119,164.746412 86.287513,163.124744 86.287513,163.124744 L78.7143617,163.124744 C75.7425436,163.124744 71.1429073,163.929437 71.1429073,163.929437 C71.1429073,163.929437 69.7972104,165.552799 72.4903012,166.627275 C75.2029072,167.708104 80.608604,170.139546 84.9299373,174.993537 C89.2593311,179.854727 93.8521795,184.440205 94.659937,186.334197 C95.4749067,188.22353 96.8189067,189.836304 97.3691491,191.720555 C97.9104824,193.614971 96.2826643,194.419664 92.7712098,193.350693 C89.2593311,192.264358 70.603271,190.107782 64.6545438,190.107782 C58.7138773,190.107782 47.0930291,187.143972 42.7632111,183.09298 C38.4418354,179.043258 35.4547446,173.104627 36.0046052,167.708104 C36.5425021,162.316664 37.3625203,159.346501 37.3625203,159.346501 C37.3625203,159.346501 33.5708537,153.668336 31.9499083,150.976004 C30.3324841,148.275201 29.5211205,146.92967 30.3324841,145.582869 C31.1402416,144.23268 32.2145931,140.453589 32.2145931,140.453589 C32.2145931,140.453589 24.1137267,126.148696 21.9411388,116.16839 C19.7909086,106.18046 19.5141753,97.5406028 19.7909086,95.3920735 C20.0540662,93.2249093 20.0540662,91.8814961 20.0540662,91.8814961 C20.0540662,91.8814961 10.0502179,86.2206954 7.6250786,84.5905576 C5.19115745,82.9739725 5.72578774,80.5493066 8.43627252,80.0055038 C11.1295755,79.4684774 19.2546238,77.5723675 19.2546238,77.5723675 L20.3253692,73.2621797 C20.3253692,73.2621797 9.78375127,61.65343 8.16136343,59.76452 C6.54211499,57.8802688 6.81536953,56.5266911 11.6729452,55.7164927 C16.5424844,54.910106 21.9411388,54.3696914 21.9411388,54.3696914 C21.9411388,54.3696914 26.0045751,50.0556919 28.1582417,48.4391069 C30.3324841,46.8144748 34.9302112,43.04089 34.9302112,43.04089 C34.9302112,43.04089 32.7220295,33.8199174 39.2429324,26.8461972 C46.8176958,18.7405285 57.6312107,13.8978037 63.8412711,13.8978037 C72.2327861,13.8978037 85.1997554,15.2383792 85.1997554,15.2383792 C85.1997554,15.2383792 93.0325431,7.68777907 94.3952098,6.33598019 C95.7566037,4.9840119 97.3691491,4.9840119 98.1752097,7.68777907 C98.9880581,10.3801111 101.965391,17.1285175 101.965391,17.1285175 L107.097876,17.9340148 C107.097876,17.9340148 115.203452,12.818838 117.639027,11.4614062 C120.071209,10.1140967 121.697755,9.83796007 122.233573,14.1622087 C122.773633,18.4778176 123.312845,21.4497591 123.312845,21.4497591 C123.312845,21.4497591 127.640967,25.4909254 129.799936,28.9981993 C131.965694,32.5053462 134.937512,34.399762 134.937512,34.399762 C134.937512,34.399762 141.154784,31.9670068 145.756118,31.9670068 C150.353633,31.9670068 157.650602,33.3135117 158.726481,38.1802078 C159.805754,43.04089 160.895208,51.6701594 159.539329,55.9981351 C158.18642,60.3032406 156.301087,67.3231248 156.301087,67.3231248 Z M170.620541,87.5590263 C170.620541,87.5590263 171.43339,99.972045 171.16739,103.484316 C170.900965,106.993623 170.347329,109.417866 169.27145,105.370685 C168.188784,101.320964 162.241329,87.025388 162.241329,87.025388 L170.620541,87.5590263 Z M160.348784,90.5325772 C160.348784,90.5325772 162.241329,95.1091605 162.780966,96.1967661 C163.32442,97.2763248 160.348784,100.51246 160.348784,100.51246 C160.348784,100.51246 155.750845,100.51246 151.703148,102.130739 C147.641875,103.7541 142.234057,107.794928 140.88836,109.417866 C139.542239,111.041651 139.808663,112.388452 137.370118,112.388452 C134.937512,112.388452 130.746421,112.551932 124.395936,112.923784 C119.797997,113.193145 108.173755,113.737371 102.502907,114.008425 C96.8189067,114.277362 94.105028,113.266414 91.1523008,112.113586 C86.287513,110.224676 83.5855131,113.469281 85.7393918,117.515614 C87.9034523,121.561948 88.987816,121.835967 89.5312705,123.181497 C90.0658159,124.526605 89.7959978,125.341885 87.9034523,125.611246 C86.0159978,125.877218 81.1465434,126.961859 84.6563009,134.247715 C88.1766645,141.533148 89.2593311,142.342923 90.3419977,143.690147 C91.4149068,145.04076 92.7712098,144.23268 91.9651492,141.804626 C91.1523008,139.374877 90.0658159,136.409373 95.4749067,136.409373 C100.876785,136.409373 107.910725,136.679157 111.689028,133.436246 C115.466482,130.201382 121.157694,125.877218 123.589876,122.908749 C126.022057,119.947057 129.264118,114.816083 134.131451,114.545452 C138.999209,114.277362 139.542239,114.545452 140.621512,115.624587 C141.704603,116.702451 140.621512,118.593056 140.348724,119.947057 C140.071693,121.29047 141.424603,123.44747 142.780481,125.341885 C144.126602,127.227407 145.756118,128.303154 143.04733,129.930327 C140.348724,131.548183 139.542239,130.74349 138.175754,129.930327 C136.836845,129.118435 133.865027,129.657155 132.235512,132.629436 C130.612785,135.599598 128.993876,138.295319 127.368179,140.18804 C125.752239,142.070174 125.212603,144.7714 129.533512,141.804626 C133.865027,138.840816 134.131451,137.483426 135.48436,135.599598 C136.836845,133.705183 137.103269,133.166462 140.071693,133.436246 C143.04733,133.705183 142.507269,132.349487 144.126602,131.282634 C145.756118,130.201382 147.918057,128.852886 146.291936,126.148696 C144.666239,123.44747 143.320118,122.104056 143.860178,119.67092 C144.406602,117.247525 144.126602,115.895641 145.756118,115.895641 C147.371633,115.895641 149.544178,116.974776 149.544178,116.974776 C149.544178,116.974776 151.969572,122.644471 152.775633,126.423138 C153.595269,130.201382 154.135329,133.166462 150.617087,133.981319 C147.439936,134.709354 144.666239,134.247715 141.967633,135.599598 C139.262239,136.945129 138.999209,136.945129 136.836845,141.533148 C134.671512,146.119896 131.156239,153.136392 122.503815,154.759753 C113.854361,156.378032 102.23521,156.378032 93.8521795,157.453356 C85.4708463,158.536726 77.0920587,160.155852 74.6666648,160.691608 C72.2293921,161.230329 67.901271,163.124744 65.1971499,163.929437 C62.491756,164.746412 60.6047258,164.468581 62.7619984,162.038409 C64.9205438,159.613744 67.0952104,155.298474 67.901271,153.668336 C68.7124225,152.056833 66.8181801,149.900257 64.6545438,152.868725 C62.491756,155.830418 61.4158773,159.073752 58.9803016,160.959274 C56.551938,162.850302 54.3912714,164.746412 53.0349684,166.904682 C51.6871502,169.053211 52.2221199,173.377375 54.3912714,170.942545 C56.551938,168.521267 58.9803016,165.281744 66.0138165,169.053211 C73.0371497,172.833573 81.4163616,177.9637 84.6563009,181.46496 C87.9034523,184.977231 90.3419977,186.596781 91.684725,188.22353 C93.0325431,189.836304 94.659937,190.648196 90.0658159,190.107782 C85.4708463,189.570755 64.3881196,187.411638 59.5216349,186.871223 C54.6589683,186.334197 43.029211,182.015539 41.9499383,176.889647 C40.8693081,171.75952 38.4418354,165.825547 42.7632111,158.536726 C47.0930291,151.248752 47.8986655,150.432201 49.2430897,148.819004 C50.6010896,147.19776 49.2430897,144.7714 46.5466049,147.19776 C43.841211,149.623697 40.0592596,155.298474 40.0592596,155.298474 C40.0592596,155.298474 37.0824354,150.976004 36.0046052,148.819004 C34.9302112,146.660734 34.3786961,147.473897 36.8161385,144.50204 C39.2429324,141.533148 41.1422232,139.638732 42.4933929,138.295319 C43.841211,136.945129 42.7632111,135.333626 40.3359929,137.216184 C37.9022415,139.1034 36.0046052,140.18804 36.0046052,140.18804 C36.0046052,140.18804 29.5211205,127.766128 27.6286175,121.29047 C25.7311509,114.816083 23.5638661,100.787326 23.8404297,97.0086586 C24.1137267,93.2249093 24.3801933,91.3410815 24.9180903,89.990892 C25.4631569,88.6415496 26.0045751,87.8300806 28.1582417,87.025388 C30.3324841,86.2206954 33.8426234,84.8616119 35.7366112,84.0535311 C37.6289869,83.2416386 38.4418354,82.7016476 39.5231445,81.6254771 C40.6092899,80.5493066 40.3359929,78.9195923 38.4418354,79.4684774 C36.5425021,80.0055038 35.7366112,80.0055038 35.7366112,80.0055038 C35.7366112,80.0055038 35.4547446,74.8766472 36.8161385,71.9094491 C38.1688778,68.9392863 38.4418354,67.856763 39.7897808,66.5082676 L42.7632111,63.5393754 C42.7632111,63.5393754 45.1970898,67.5890968 45.463514,70.5592596 C45.7316352,73.5243401 46.0065443,75.6898103 47.0930291,77.3013131 C48.1655139,78.9195923 48.9766654,88.6415496 48.9766654,93.7674415 C48.9766654,98.9013803 48.44212,102.943902 47.6258776,106.993623 C46.8176958,111.041651 46.2797564,112.923784 45.7316352,115.624587 C45.1970898,118.322001 46.5466049,118.056029 47.8986655,114.816083 C49.2430897,111.582065 51.4075745,105.639622 52.2221199,102.130739 C53.0349684,98.6248202 53.841029,91.6104418 53.0349684,87.5590263 C52.2221199,83.5160812 52.2221199,80.2714759 51.140726,78.111088 C50.0597563,75.9579 49.5179988,73.5243401 48.7153321,71.9094491 C47.8986655,70.2932875 48.44212,68.9392863 50.0597563,70.5592596 C51.6871502,72.180927 58.7138773,81.0846389 61.6856954,84.8616119 C64.6545438,88.6415496 72.2293921,98.0776292 79.257392,101.594983 C86.287513,105.099208 96.5524824,108.337036 103.322967,108.87618 C110.06927,109.417866 118.185876,109.691038 120.89127,109.691038 C123.589876,109.691038 121.964179,108.615291 118.185876,108.072758 C114.400785,107.525144 109.255997,105.370685 104.132422,105.370685 C100.868725,105.370685 89.2593311,102.130739 82.4926646,98.6248202 C77.1739375,95.8575247 75.4710284,94.306162 73.0371497,92.1487388 C70.603271,89.990892 68.4426043,86.4811617 65.7406044,83.2416386 C63.0398772,80.0055038 58.9803016,75.42045 56.2783016,71.9094491 C53.5712108,68.3992952 48.9766654,65.1593487 46.5466049,62.2023151 C44.110605,59.2308818 42.2149202,56.5266911 40.8693081,53.0178078 C39.5231445,49.5068069 38.1688778,46.2672839 37.9022415,43.04089 C37.6289869,39.801367 37.5573748,36.5274963 40.3359929,31.7006535 C42.4933929,27.9220288 50.4543018,21.7500365 58.170847,20.3701157 C68.7124225,18.4778176 76.8201193,18.7405285 82.2262404,20.9105727 C87.628119,23.0659207 95.2063613,28.4641799 97.6283612,31.9670068 C100.065634,35.4822429 107.637512,49.5068069 109.530058,53.5649988 C111.425997,57.6041321 117.096421,70.0154568 120.344845,73.7975121 C123.589876,77.5723675 126.29527,80.5493066 127.901027,81.0846389 C129.533512,81.6254771 131.425633,82.7016476 131.425633,82.7016476 C131.425633,82.7016476 133.865027,89.451748 133.591815,91.6104418 C133.318603,93.7674415 133.591815,94.8431884 133.318603,95.9290999 C133.052178,97.0086586 132.50533,100.787326 135.753754,101.057957 C138.999209,101.320964 140.621512,98.9013803 142.507269,96.1967661 C144.406602,93.4963871 147.371633,88.3721893 147.371633,88.3721893 C147.371633,88.3721893 148.187875,89.990892 148.727511,92.1487388 C149.267572,94.306162 149.803814,97.5406028 151.703148,97.5406028 C153.595269,97.5406028 154.948178,98.0776292 156.564117,95.6580456 C158.18642,93.2249093 160.348784,90.5325772 160.348784,90.5325772 Z M141.967633,91.6104418 C140.071693,95.1091605 140.071693,95.3920735 138.456178,97.5406028 C136.836845,99.7043788 135.211148,99.4362892 136.023997,96.4665499 C136.836845,93.4963871 137.103269,89.7211082 136.836845,87.5590263 C136.564057,85.410497 136.023997,83.2416386 138.175754,83.5160812 C140.348724,83.7790886 141.154784,84.0535311 142.507269,84.3245855 C143.860178,84.5905576 144.939451,85.6730809 144.126602,87.2811955 C143.320118,88.9058276 143.593754,88.6004679 141.967633,91.6104418 L141.967633,91.6104418 Z M149.267572,85.1343604 C151.703148,85.410497 155.750845,86.2206954 156.837329,86.4811617 C157.92339,86.752216 158.726481,86.752216 157.650602,89.1739173 C156.564117,91.6104418 155.487814,93.2249093 154.135329,94.5789105 C152.775633,95.9290999 152.243208,94.306162 151.429936,92.1487388 C150.617087,89.990892 150.08042,89.1739173 149.544178,87.5590263 C149.001148,85.939053 146.831996,84.8616119 149.267572,85.1343604 L149.267572,85.1343604 Z M107.097876,38.9882039 C106.82424,36.8295948 106.557816,28.7338366 111.425997,28.4641799 C116.286543,28.1916855 120.89127,28.7338366 124.395936,31.4346391 C127.901027,34.1269712 133.052178,41.685703 134.671512,46.5345265 C136.290421,51.3991051 138.175754,58.4211069 138.456178,61.9249079 C138.72939,65.4274384 137.649694,67.0516469 136.023997,68.9392863 C134.397875,70.8286199 132.775572,72.4485932 131.425633,73.2621797 C130.076966,74.0685664 130.889815,75.42045 133.318603,74.6005106 C135.753754,73.7975121 138.72939,71.9094491 140.348724,72.180927 C141.967633,72.4485932 143.860178,74.0685664 145.209693,72.9856196 C146.565572,71.9094491 145.756118,70.5592596 150.353633,70.8286199 C154.948178,71.094592 160.348784,72.4485932 165.48339,74.6005106 C170.620541,76.7693689 174.405632,78.111088 176.031753,79.7378376 C177.64048,81.3578109 178.730359,83.2416386 175.488723,83.5160812 C172.243268,83.7790886 161.708481,83.7790886 156.837329,82.9739725 C151.969572,82.1608094 142.507269,80.8135846 138.72939,80.5493066 C134.937512,80.2714759 128.450845,81.0846389 124.1223,74.8766472 C119.797997,68.6703496 116.286543,61.65343 113.314724,55.44925 C110.342906,49.2391407 107.637512,44.3792209 107.363876,43.04089 C107.097876,41.685703 107.363876,41.1481683 107.097876,38.9882039 L107.097876,38.9882039 Z M154.408542,61.65343 C153.322481,63.8070416 152.509633,68.1312055 150.08042,67.5890968 C147.641875,67.0516469 146.291936,67.0516469 144.666239,67.5890968 C143.04733,68.1312055 141.154784,68.1312055 140.621512,65.4274384 C140.071693,62.7346828 139.542239,56.5266911 139.262239,52.7514122 C138.999209,48.9714745 139.999997,43.2916153 143.860178,40.3333959 C148.461936,36.8295948 151.703148,37.0937881 154.135329,39.801367 C156.564117,42.4953931 156.837329,44.6545105 156.564117,48.1600056 C156.301087,51.6701594 155.487814,59.4968539 154.408542,61.65343 Z M41.4053808,62.4632049 C38.7084718,64.0836017 34.6518234,67.5890968 33.5708537,70.8286199 C32.4881871,74.0685664 33.0309204,80.8135846 33.0309204,80.8135846 L26.8141145,83.5160812 C26.8141145,83.5160812 28.708272,74.6005106 30.8672841,71.094592 C33.0309204,67.5890968 35.1987143,61.9249079 39.2429324,58.9496629 C40.0390232,58.3783311 41.6410474,62.3289483 41.4053808,62.4632049 Z M112.771694,121.561948 C112.771694,123.198438 114.103815,124.526605 115.743088,124.526605 C117.389573,124.526605 118.718724,123.198438 118.718724,121.561948 C118.718724,119.922916 117.389573,118.593056 115.743088,118.593056 C114.103815,118.593056 112.771694,119.922916 112.771694,121.561948 Z M108.723997,123.181497 C109.530058,126.423138 112.771694,127.766128 112.771694,127.766128 C112.771694,127.766128 109.530058,131.815849 105.751755,132.895408 C101.965391,133.981319 98.71824,134.513687 97.0955127,133.166462 C95.4749067,131.815849 94.9314522,129.657155 94.9314522,125.611246 C94.9314522,121.561948 93.8521795,116.43775 97.9104824,116.702451 C101.965391,116.974776 103.046785,117.247525 104.931694,116.702451 C106.82424,116.16839 108.986603,116.702451 108.986603,116.702451 C108.986603,116.702451 107.910725,119.947057 108.723997,123.181497 L108.723997,123.181497 Z M90.6054523,162.038409 C90.6054523,162.038409 96.5524824,160.959274 98.4539369,161.774131 C100.342664,162.575859 100.601876,163.124744 103.322967,162.038409 C106.018603,160.959274 107.910725,160.959274 109.255997,161.774131 C110.609331,162.575859 111.965209,164.202186 111.425997,165.281744 C110.882118,166.361303 111.965209,167.16896 114.667209,165.281744 C117.369209,163.392411 120.071209,161.497995 126.29527,161.774131 C132.50533,162.038409 143.860178,163.929437 143.860178,163.929437 L135.211148,166.627275 C130.889815,167.977464 128.187815,170.407213 125.475633,174.183762 C122.773633,177.9637 120.344845,179.854727 115.466482,178.231789 C110.609331,176.615204 97.6283612,168.251907 94.9314522,166.361303 C92.2281795,164.468581 90.6054523,162.038409 90.6054523,162.038409 L90.6054523,162.038409 Z" id="path20" fill="#231F20"></path>
                        <path d="M63.8412711,50.8608081 C62.225756,52.7514122 58.4478773,53.5649988 61.1460591,49.5068069 C63.8412711,45.4604736 67.8007256,42.1116818 72.2293921,44.9251413 C78.1747253,48.7088906 83.0424828,54.0982135 88.987816,63.2721328 C94.9314522,72.4485932 99.5315127,80.0055038 102.502907,84.8616119 C105.478543,89.7211082 107.637512,92.6861887 112.231634,95.1091605 C116.819815,97.5406028 118.448906,98.3558834 120.618058,99.972045 C122.773633,101.594983 121.964179,101.861379 118.448906,100.51246 C114.940421,99.1635407 110.609331,98.3558834 108.723997,97.8133512 C106.82424,97.2763248 102.772725,94.5789105 100.876785,90.7985493 C98.9880581,87.025388 90.6054523,72.180927 86.5577554,65.7052691 C82.4926646,59.2308818 76.0140587,50.0556919 72.7741194,48.4391069 C69.5286649,46.8144748 68.1744831,47.0838351 66.548362,48.1600056 C64.9205438,49.2391407 65.4707862,48.9714745 63.8412711,50.8608081" id="path22" fill="#231F20"></path>
                        <path d="M124.1223,96.7371807 C119.531573,95.1091605 113.0483,89.990892 110.06927,85.1343604 C107.097876,80.2714759 103.046785,72.9856196 102.502907,69.4750422 C101.965391,65.9640413 101.965391,64.6185106 101.965391,62.7346828 C101.965391,60.8436552 104.392058,61.1185212 105.2083,65.4274384 C106.018603,69.7477906 107.910725,75.6898103 109.796058,78.9195923 C111.689028,82.1608094 115.466482,86.752216 119.797997,89.990892 C124.1223,93.2249093 126.554906,94.5789105 127.901027,94.8431884 C129.264118,95.1091605 130.612785,97.5406028 128.187815,97.5406028 C125.752239,97.5406028 124.665754,96.7371807 124.1223,96.7371807" id="path24" fill="#231F20"></path>
                        <path d="M57.0881804,46.8144748 C58.7138773,44.1119782 62.7619984,38.1802078 67.901271,38.9882039 C73.0371497,39.801367 74.9296951,40.6008926 77.6401799,42.4953931 C80.3400586,44.3792209 80.8835131,42.4953931 79.257392,40.872074 C77.6401799,39.2588771 72.4903012,34.1269712 69.2537558,33.5950694 C66.0138165,33.0474972 63.5769681,33.3135117 60.869453,35.7419892 C56.8883622,39.3324853 56.0084834,41.685703 55.4620592,44.9251413 C54.9275138,48.1600056 55.4620592,49.5068069 57.0881804,46.8144748" id="path26" fill="#231F20"></path>
                        <path d="M48.7153321,125.611246 C51.140726,122.370028 56.2783016,112.923784 56.8111501,107.525144 C57.3575743,102.130739 56.551938,101.320964 57.0881804,99.972045 C57.6312107,98.6248202 60.6047258,97.5406028 60.869453,101.320964 C61.1460591,105.099208 60.869453,112.659506 58.7138773,116.43775 C56.551938,120.212605 53.841029,125.341885 51.4075745,127.227407 C48.9766654,129.118435 46.2797564,128.852886 48.7153321,125.611246" id="path28" fill="#231F20"></path>
                        <polygon id="path30" fill="#FAB937" points="19.7909086 88.3721893 10.0502179 82.9739725 20.3253692 80.0055038"></polygon>
                        <path d="M25.1913872,68.3992952 L10.3233452,59.4968539 L21.6832419,59.2308818 L25.7311509,56.5266911 C25.7311509,56.5266911 27.6286175,60.5742949 27.0855448,63.002349 C26.5439993,65.4274384 25.1913872,68.3992952 25.1913872,68.3992952" id="path32" fill="#FAB937"></path>
                        <polyline id="path34" fill="#8E0A26" points="25.1913872 76.7693689 21.9411388 74.6005106 22.4878176 70.8286199 27.0855448 72.7196475 25.1913872 76.7693689"></polyline>
                        <path d="M29.5211205,66.241872 C30.0590599,62.2023151 29.7894538,58.4211069 28.708272,55.1756546 C28.6176538,54.9185764 31.9499083,52.7514122 31.9499083,52.7514122 L37.3625203,57.0603293 C37.3625203,57.0603293 35.7366112,59.2308818 33.8426234,61.387458 C31.9499083,63.5393754 29.7894538,66.241872 29.5211205,66.241872" id="path36" fill="#8E0A26"></path>
                        <path d="M88.7179978,17.6731249 L95.4749067,10.9243798 L96.5524824,16.5868746 L98.71824,19.0178086 C98.71824,19.0178086 96.8189067,22.5288943 94.3952098,21.7174253 C91.9651492,20.9105727 88.7179978,17.6731249 88.7179978,17.6731249" id="path38" fill="#FAB937"></path>
                        <path d="M109.796058,20.0958003 L118.448906,14.9669013 C118.448906,14.9669013 120.071209,20.3701157 120.071209,21.9867856 C120.071209,23.6118834 116.819815,26.8461972 114.940421,25.4909254 C113.0483,24.1437429 110.06927,21.4497591 110.06927,21.4497591 L109.796058,20.0958003" id="path40" fill="#FAB937"></path>
                        <path d="M109.796058,25.7615986 L106.018603,20.9105727 L102.502907,20.0958003 C102.502907,20.0958003 101.152119,22.2645316 99.2578763,23.0659207 C97.3691491,23.8773897 94.3952098,25.2232592 94.3952098,25.2232592 L95.4749067,26.568917 C95.4749067,26.568917 99.5315127,26.568917 101.965391,26.568917 C104.392058,26.568917 109.796058,25.7615986 109.796058,25.7615986" id="path42" fill="#8E0A26"></path>
                        <path d="M35.7366112,134.247715 C34.6518234,131.548183 30.0590599,116.43775 29.2549932,109.95701 C28.4416357,103.484316 27.6286175,97.2763248 27.6286175,94.5789105 C27.6286175,91.8814961 29.2549932,88.9058276 31.6801325,88.6415496 C34.113884,88.3721893 36.2712415,87.2811955 38.4418354,85.939053 C40.6092899,84.5905576 44.110605,82.9739725 39.7897808,86.752216 C35.4547446,90.5325772 32.7612719,91.6104418 33.0309204,100.787326 C33.2922537,109.95701 34.113884,118.322001 35.7366112,124.264021 C37.3625203,130.201382 37.9022415,131.006074 38.4418354,133.166462 C38.9731142,135.333626 36.8161385,136.945129 35.7366112,134.247715" id="path44" fill="#231F20"></path>
                        <path d="M108.723997,123.181497 C109.530058,126.423138 112.771694,127.766128 112.771694,127.766128 C112.771694,127.766128 109.530058,131.815849 105.751755,132.895408 C101.965391,133.981319 98.71824,134.513687 97.0955127,133.166462 C95.4749067,131.815849 94.9314522,129.657155 94.9314522,125.611246 C94.9314522,121.561948 93.8521795,116.43775 97.9104824,116.702451 C101.965391,116.974776 103.046785,117.247525 104.931694,116.702451 C106.82424,116.16839 108.986603,116.702451 108.986603,116.702451 C108.986603,116.702451 107.910725,119.947057 108.723997,123.181497" id="path46" fill="#FFFFFF"></path>
                        <path d="M112.771694,121.561948 C112.771694,123.198438 114.103815,124.526605 115.743088,124.526605 C117.389573,124.526605 118.718724,123.198438 118.718724,121.561948 C118.718724,119.922916 117.389573,118.593056 115.743088,118.593056 C114.103815,118.593056 112.771694,119.922916 112.771694,121.561948" id="path48" fill="#FFFFFF"></path>
                        <path d="M149.267572,85.1343604 C151.703148,85.410497 155.750845,86.2206954 156.837329,86.4811617 C157.92339,86.752216 158.726481,86.752216 157.650602,89.1739173 C156.564117,91.6104418 155.487814,93.2249093 154.135329,94.5789105 C152.775633,95.9290999 152.243208,94.306162 151.429936,92.1487388 C150.617087,89.990892 150.08042,89.1739173 149.544178,87.5590263 C149.001148,85.939053 146.831996,84.8616119 149.267572,85.1343604" id="path50" fill="#FFFFFF"></path>
                        <path d="M141.967633,91.6104418 C140.071693,95.1091605 140.071693,95.3920735 138.456178,97.5406028 C136.836845,99.7043788 135.211148,99.4362892 136.023997,96.4665499 C136.836845,93.4963871 137.103269,89.7211082 136.836845,87.5590263 C136.564057,85.410497 136.023997,83.2416386 138.175754,83.5160812 C140.348724,83.7790886 141.154784,84.0535311 142.507269,84.3245855 C143.860178,84.5905576 144.939451,85.6730809 144.126602,87.2811955 C143.320118,88.9058276 143.593754,88.6004679 141.967633,91.6104418" id="path52" fill="#FFFFFF"></path>
                        <path d="M170.620541,87.5590263 C170.620541,87.5590263 171.43339,99.972045 171.16739,103.484316 C170.900965,106.993623 170.347329,109.417866 169.27145,105.370685 C168.188784,101.320964 162.241329,87.025388 162.241329,87.025388 L170.620541,87.5590263" id="path54" fill="#FFFFFF"></path>
                        <path d="M182.888359,41.4535703 L179.458783,41.4535703 L179.458783,38.9729995 L182.888359,38.9729995 C183.178965,39.2610371 183.390662,39.4722901 183.697814,39.7603277 L183.697814,40.6641245 L182.888359,41.4535703 Z M184.95145,39.2982647 L183.353329,37.7214484 L182.54345,37.7214484 L184.914117,35.3564991 L184.026177,34.4510505 L180.750177,37.7214484 L179.458783,37.7214484 L179.458783,34.8173551 L178.208965,34.8173551 L178.208965,42.7033426 L183.353329,42.7033426 L184.95145,41.1265263 L184.95145,39.2982647 Z M187.206298,42.5500275 L185.317571,44.2432702 L177.361753,44.2432702 L175.472177,42.5500275 L175.472177,34.9707125 L177.361753,33.2774275 L185.317571,33.2774275 L187.206298,34.9707125 L187.206298,42.5500275 Z M188.459935,34.3946373 L185.83642,32.0280364 L176.838662,32.0280364 L174.218541,34.3946373 L174.218541,43.126018 L176.838662,45.4930849 L185.83642,45.4930849 L188.459935,43.126018 L188.459935,34.3946373 L188.459935,34.3946373 Z" id="path56" fill="#8E0A26" fill-rule="nonzero"></path>
                    </g>
                </g>
            </g>
        </g>
    </g>
</svg>